<mxfile host="app.diagrams.net" agent="Mozilla/5.0 (Windows NT 10.0; Win64; x64; rv:136.0) Gecko/20100101 Firefox/136.0" version="26.1.0">
  <diagram name="Page-1" id="gWobGs86uklWkqJ5Z9FW">
    <mxGraphModel dx="637" dy="317" grid="1" gridSize="10" guides="1" tooltips="1" connect="1" arrows="1" fold="1" page="1" pageScale="1" pageWidth="850" pageHeight="1100" math="0" shadow="0">
      <root>
        <mxCell id="0" />
        <mxCell id="1" parent="0" />
        <mxCell id="J_4vyGDz-1XPF-WkNFsq-1" value="" style="pointerEvents=1;verticalLabelPosition=bottom;shadow=0;dashed=0;align=center;html=1;verticalAlign=top;shape=mxgraph.electrical.inductors.adjustable_transformer;" vertex="1" parent="1">
          <mxGeometry x="190" y="270" width="46" height="60" as="geometry" />
        </mxCell>
        <mxCell id="J_4vyGDz-1XPF-WkNFsq-13" style="edgeStyle=orthogonalEdgeStyle;rounded=0;orthogonalLoop=1;jettySize=auto;html=1;exitX=1;exitY=0.25;exitDx=0;exitDy=0;exitPerimeter=0;entryX=1;entryY=0.5;entryDx=0;entryDy=0;endArrow=none;startFill=0;" edge="1" parent="1" source="J_4vyGDz-1XPF-WkNFsq-2" target="J_4vyGDz-1XPF-WkNFsq-5">
          <mxGeometry relative="1" as="geometry" />
        </mxCell>
        <mxCell id="J_4vyGDz-1XPF-WkNFsq-2" value="" style="pointerEvents=1;verticalLabelPosition=bottom;shadow=0;dashed=0;align=center;html=1;verticalAlign=top;shape=mxgraph.electrical.resistors.potentiometer_2;rotation=-90;" vertex="1" parent="1">
          <mxGeometry x="345" y="290" width="50" height="20" as="geometry" />
        </mxCell>
        <mxCell id="J_4vyGDz-1XPF-WkNFsq-3" value="" style="pointerEvents=1;verticalLabelPosition=bottom;shadow=0;dashed=0;align=center;html=1;verticalAlign=top;shape=mxgraph.electrical.inductors.inductor_5;rotation=90;" vertex="1" parent="1">
          <mxGeometry x="395" y="256" width="60" height="14" as="geometry" />
        </mxCell>
        <mxCell id="J_4vyGDz-1XPF-WkNFsq-4" value="" style="pointerEvents=1;verticalLabelPosition=bottom;shadow=0;dashed=0;align=center;html=1;verticalAlign=top;shape=mxgraph.electrical.inductors.inductor_5;rotation=90;" vertex="1" parent="1">
          <mxGeometry x="395" y="316" width="60" height="14" as="geometry" />
        </mxCell>
        <mxCell id="J_4vyGDz-1XPF-WkNFsq-5" value="&lt;div align=&quot;center&quot;&gt;&lt;sup&gt;&lt;font style=&quot;font-size: 18px;&quot;&gt;A&lt;/font&gt;&lt;/sup&gt;&lt;/div&gt;" style="verticalLabelPosition=middle;shadow=0;dashed=0;align=center;html=1;verticalAlign=middle;strokeWidth=1;shape=ellipse;aspect=fixed;fontSize=50;" vertex="1" parent="1">
          <mxGeometry x="315" y="190" width="30" height="30" as="geometry" />
        </mxCell>
        <mxCell id="J_4vyGDz-1XPF-WkNFsq-16" style="edgeStyle=orthogonalEdgeStyle;rounded=0;orthogonalLoop=1;jettySize=auto;html=1;exitX=0;exitY=0.5;exitDx=0;exitDy=0;entryX=0;entryY=0.5;entryDx=0;entryDy=0;endArrow=none;startFill=0;" edge="1" parent="1" source="J_4vyGDz-1XPF-WkNFsq-6" target="J_4vyGDz-1XPF-WkNFsq-5">
          <mxGeometry relative="1" as="geometry" />
        </mxCell>
        <mxCell id="J_4vyGDz-1XPF-WkNFsq-6" value="&lt;font style=&quot;font-size: 24px;&quot;&gt;&lt;sup&gt;V&lt;/sup&gt;&lt;/font&gt;" style="verticalLabelPosition=middle;shadow=0;dashed=0;align=center;html=1;verticalAlign=middle;strokeWidth=1;shape=ellipse;aspect=fixed;fontSize=50;" vertex="1" parent="1">
          <mxGeometry x="315" y="140" width="30" height="30" as="geometry" />
        </mxCell>
        <mxCell id="J_4vyGDz-1XPF-WkNFsq-23" style="edgeStyle=orthogonalEdgeStyle;rounded=0;orthogonalLoop=1;jettySize=auto;html=1;exitX=0.5;exitY=1;exitDx=0;exitDy=0;endArrow=none;startFill=0;entryX=0;entryY=0.5;entryDx=0;entryDy=0;" edge="1" parent="1" source="J_4vyGDz-1XPF-WkNFsq-7" target="J_4vyGDz-1XPF-WkNFsq-5">
          <mxGeometry relative="1" as="geometry">
            <mxPoint x="260" y="200" as="targetPoint" />
            <Array as="points">
              <mxPoint x="251" y="160" />
              <mxPoint x="240" y="160" />
              <mxPoint x="240" y="205" />
            </Array>
          </mxGeometry>
        </mxCell>
        <mxCell id="J_4vyGDz-1XPF-WkNFsq-24" style="edgeStyle=orthogonalEdgeStyle;rounded=0;orthogonalLoop=1;jettySize=auto;html=1;exitX=1;exitY=0.5;exitDx=0;exitDy=0;entryX=0;entryY=0.5;entryDx=0;entryDy=0;endArrow=none;startFill=0;" edge="1" parent="1" source="J_4vyGDz-1XPF-WkNFsq-7" target="J_4vyGDz-1XPF-WkNFsq-5">
          <mxGeometry relative="1" as="geometry">
            <mxPoint x="290" y="210" as="targetPoint" />
            <Array as="points">
              <mxPoint x="280" y="155" />
              <mxPoint x="280" y="205" />
            </Array>
          </mxGeometry>
        </mxCell>
        <mxCell id="J_4vyGDz-1XPF-WkNFsq-25" style="edgeStyle=orthogonalEdgeStyle;rounded=0;orthogonalLoop=1;jettySize=auto;html=1;exitX=1;exitY=0.5;exitDx=0;exitDy=0;entryX=0;entryY=0.5;entryDx=0;entryDy=0;endArrow=none;startFill=0;" edge="1" parent="1" source="J_4vyGDz-1XPF-WkNFsq-7" target="J_4vyGDz-1XPF-WkNFsq-5">
          <mxGeometry relative="1" as="geometry">
            <Array as="points">
              <mxPoint x="260" y="155" />
              <mxPoint x="260" y="205" />
            </Array>
          </mxGeometry>
        </mxCell>
        <mxCell id="J_4vyGDz-1XPF-WkNFsq-7" value="&lt;sup&gt;&lt;font style=&quot;font-size: 24px;&quot;&gt;w&lt;/font&gt;&lt;/sup&gt;" style="verticalLabelPosition=middle;shadow=0;dashed=0;align=center;html=1;verticalAlign=middle;strokeWidth=1;shape=ellipse;aspect=fixed;fontSize=50;" vertex="1" parent="1">
          <mxGeometry x="236" y="140" width="30" height="30" as="geometry" />
        </mxCell>
        <mxCell id="J_4vyGDz-1XPF-WkNFsq-10" style="edgeStyle=orthogonalEdgeStyle;rounded=0;orthogonalLoop=1;jettySize=auto;html=1;exitX=1;exitY=0.5;exitDx=0;exitDy=0;entryX=0;entryY=0.645;entryDx=0;entryDy=0;entryPerimeter=0;endArrow=none;startFill=0;" edge="1" parent="1" source="J_4vyGDz-1XPF-WkNFsq-5" target="J_4vyGDz-1XPF-WkNFsq-3">
          <mxGeometry relative="1" as="geometry" />
        </mxCell>
        <mxCell id="J_4vyGDz-1XPF-WkNFsq-11" style="edgeStyle=orthogonalEdgeStyle;rounded=0;orthogonalLoop=1;jettySize=auto;html=1;exitX=1;exitY=0.645;exitDx=0;exitDy=0;exitPerimeter=0;entryX=0.47;entryY=1;entryDx=0;entryDy=0;entryPerimeter=0;endArrow=none;startFill=0;" edge="1" parent="1" source="J_4vyGDz-1XPF-WkNFsq-4" target="J_4vyGDz-1XPF-WkNFsq-1">
          <mxGeometry relative="1" as="geometry" />
        </mxCell>
        <mxCell id="J_4vyGDz-1XPF-WkNFsq-14" style="edgeStyle=orthogonalEdgeStyle;rounded=0;orthogonalLoop=1;jettySize=auto;html=1;exitX=0;exitY=0.25;exitDx=0;exitDy=0;exitPerimeter=0;entryX=1;entryY=0.645;entryDx=0;entryDy=0;entryPerimeter=0;endArrow=none;startFill=0;" edge="1" parent="1" source="J_4vyGDz-1XPF-WkNFsq-2" target="J_4vyGDz-1XPF-WkNFsq-4">
          <mxGeometry relative="1" as="geometry" />
        </mxCell>
        <mxCell id="J_4vyGDz-1XPF-WkNFsq-15" style="edgeStyle=orthogonalEdgeStyle;rounded=0;orthogonalLoop=1;jettySize=auto;html=1;entryX=1;entryY=0.25;entryDx=0;entryDy=0;entryPerimeter=0;endArrow=none;startFill=0;" edge="1" parent="1" source="J_4vyGDz-1XPF-WkNFsq-6" target="J_4vyGDz-1XPF-WkNFsq-2">
          <mxGeometry relative="1" as="geometry" />
        </mxCell>
        <mxCell id="J_4vyGDz-1XPF-WkNFsq-17" style="edgeStyle=orthogonalEdgeStyle;rounded=0;orthogonalLoop=1;jettySize=auto;html=1;exitX=0;exitY=0.5;exitDx=0;exitDy=0;entryX=0.47;entryY=0;entryDx=0;entryDy=0;entryPerimeter=0;endArrow=none;startFill=0;" edge="1" parent="1" source="J_4vyGDz-1XPF-WkNFsq-7" target="J_4vyGDz-1XPF-WkNFsq-1">
          <mxGeometry relative="1" as="geometry" />
        </mxCell>
        <mxCell id="J_4vyGDz-1XPF-WkNFsq-26" value="L1&lt;br&gt;0.16H" style="text;html=1;align=center;verticalAlign=middle;whiteSpace=wrap;rounded=0;" vertex="1" parent="1">
          <mxGeometry x="425" y="248" width="60" height="30" as="geometry" />
        </mxCell>
        <mxCell id="J_4vyGDz-1XPF-WkNFsq-27" value="L2&lt;br&gt;0.16H" style="text;html=1;align=center;verticalAlign=middle;whiteSpace=wrap;rounded=0;" vertex="1" parent="1">
          <mxGeometry x="425" y="308" width="60" height="30" as="geometry" />
        </mxCell>
        <mxCell id="J_4vyGDz-1XPF-WkNFsq-28" value="Variac" style="text;html=1;align=center;verticalAlign=middle;whiteSpace=wrap;rounded=0;" vertex="1" parent="1">
          <mxGeometry x="221" y="285" width="60" height="30" as="geometry" />
        </mxCell>
      </root>
    </mxGraphModel>
  </diagram>
</mxfile>
